<svg xmlns="http://www.w3.org/2000/svg" viewBox="0 0 400 300" width="100%" height="100%">
  <rect x="40" y="30" width="240" height="150" rx="10" fill="#2b3a55"/>
  <rect x="50" y="40" width="220" height="130" rx="4" fill="#eef3fb"/>
  <polyline points="65,140 95,100 120,120 150,70 180,95 205,60" fill="none" stroke="#3aa7d9" stroke-width="4" stroke-linecap="round" stroke-linejoin="round"/>
  <rect x="65" y="150" width="30" height="12" rx="3" fill="#c9d6e8"/>
  <rect x="100" y="150" width="45" height="12" rx="3" fill="#c9d6e8"/>
  <rect x="150" y="150" width="35" height="12" rx="3" fill="#c9d6e8"/>
  <polygon points="20,190 300,190 320,215 0,215" fill="#3a4a68"/>
  <rect x="290" y="90" width="18" height="46" rx="6" fill="#3fae4e"/>
  <rect x="290" y="90" width="18" height="14" rx="6" fill="#ffffff"/>
  <rect x="312" y="70" width="22" height="55" rx="7" fill="#e05656"/>
  <rect x="312" y="70" width="22" height="16" rx="7" fill="#ffffff"/>
  <rect x="338" y="100" width="16" height="40" rx="5" fill="#6a4fd6"/>
  <rect x="338" y="100" width="16" height="12" rx="5" fill="#ffffff"/>
  <circle cx="60" cy="230" r="10" fill="#3fae4e" opacity="0.7"/>
  <circle cx="80" cy="245" r="6" fill="#3aa7d9" opacity="0.7"/>
  <circle cx="335" cy="200" r="8" fill="#e05656" opacity="0.6"/>
</svg>
